<svg width="56" height="55" viewBox="0 0 56 55" fill="none" xmlns="http://www.w3.org/2000/svg">
<path d="M26.4759 50.7299C24.4526 48.8251 21.8197 46.8666 18.9167 48.3021C17.4428 49.0312 16.1094 51.2683 14.2972 51.0735C11.3426 50.7566 10.2898 47.2758 6.73794 47.9556C5.29925 48.2308 -0.183231 51.4155 0.0925121 53.1225C0.624471 56.4152 6.69657 51.2274 7.57752 51.0431C9.86808 50.563 11.7646 54.0538 14.2972 54.1627C17.1946 54.287 18.4939 51.0927 21.0181 51.0431C23.6369 50.9914 25.1225 54.7966 28.1181 54.0484C29.9288 53.5963 31.3675 51.2082 32.5333 49.8978C33.8415 48.4277 35.8556 47.8442 37.0512 46.4287C37.9197 45.4002 38.0738 43.9518 38.9482 42.9216C40.1261 41.5341 42.0878 41.3522 43.1847 39.8078C45.6763 36.2999 46.9429 31.3369 48.5668 27.3744C50.8518 21.8003 54.0573 16.1121 55.5532 10.2749C57.068 4.36467 43.3476 -2.37651 39.3425 2.04981C37.3515 4.25047 36.5112 8.00307 35.358 10.6919C33.1612 15.8138 31.0131 20.9624 28.9114 26.1232C27.9514 28.4805 26.3805 31.0454 26.2219 33.6303C26.1296 35.133 27.143 36.3412 27.1256 37.801C27.1066 39.395 25.8415 40.7462 25.8994 42.3511C26.0055 45.2914 26.8795 47.5585 26.4759 50.7299Z" fill="#020202"/>
</svg>
